<?xml version="1.0" encoding="UTF-8"?>
<svg version="1.1" xmlns="http://www.w3.org/2000/svg" width="612" height="408">
<path d="M0 0 C0.66 -0.66 1.32 -1.32 2 -2 C4.34765625 -2.23046875 4.34765625 -2.23046875 7.0625 -2.1875 C8.41021484 -2.17783203 8.41021484 -2.17783203 9.78515625 -2.16796875 C12 -2 12 -2 13 -1 C13.10856595 0.43586842 13.14901902 1.87697858 13.16113281 3.31689453 C13.17074036 4.2352005 13.1803479 5.15350647 13.19024658 6.09963989 C13.19449646 7.10058685 13.19874634 8.10153381 13.203125 9.1328125 C13.20882507 10.15800995 13.21452515 11.1832074 13.22039795 12.23947144 C13.22986774 14.41679853 13.23638974 16.59414008 13.24023438 18.77148438 C13.24989838 22.09010266 13.2808861 25.40809085 13.3125 28.7265625 C13.31903397 30.84114215 13.32428289 32.95572624 13.328125 35.0703125 C13.3404718 36.05911407 13.3528186 37.04791565 13.36553955 38.06668091 C13.34097769 45.73715114 11.96484653 51.74312055 6.6171875 57.64453125 C0.21507501 63.01055307 -7.52785834 63.63625676 -15.58984375 63.390625 C-22.7595436 62.56935354 -28.70110683 59.94563363 -34 55 C-33.65657251 51.90915263 -32.74044345 50.67555431 -30.75 48.1875 C-28 46 -28 46 -25.5 46 C-22.79167677 47.08332929 -20.46364328 48.44401477 -18 50 C-13.31472167 51.56175944 -9.46584267 51.45102851 -4.75 50 C-0.86455976 47.17422528 -0.34511018 44.55842895 1 40 C0.44828125 40.47824219 -0.1034375 40.95648438 -0.671875 41.44921875 C-5.5286752 44.68436922 -12.47921539 44.51480102 -18.125 43.5625 C-23.92473488 41.79268399 -28.88259778 37.17955186 -32.19921875 32.19921875 C-35.12882017 25.98274744 -35.65779577 19.48121418 -33.72265625 12.9453125 C-31.06907622 5.80216194 -27.25543898 1.03100497 -20.25 -2.3125 C-12.7935201 -3.88983229 -6.76724235 -3.53073514 0 0 Z M-19 11 C-21.60344608 14.52724953 -22.23531253 17.27695969 -22 21.5625 C-21.31097721 26.0600773 -19.65110245 28.19799115 -16 31 C-13.24566769 33.01984369 -12.05792558 33.00210638 -8.5625 32.875 C-4.50908683 31.87942483 -2.74983171 31.14266481 0 28 C1.94119667 23.41735764 2.26587682 20.01365536 1 15.1875 C-1.30923149 11.50716231 -3.10636016 9.90864698 -7 8 C-11.79725776 7.30039991 -14.98387205 8.32258137 -19 11 Z " fill="#4F3EF7" transform="translate(392,189)"/>
<path d="M0 0 C3.96 0 7.92 0 12 0 C13 1 13 1 13.11352539 3.50024414 C13.10828857 4.58426514 13.10305176 5.66828613 13.09765625 6.78515625 C13.09515869 7.83840088 13.09266113 8.89164551 13.09008789 9.97680664 C13.08098389 11.32508545 13.07187988 12.67336426 13.0625 14.0625 C13.041875 18.331875 13.02125 22.60125 13 27 C22.24 27 31.48 27 41 27 C40.96040724 18.48837175 40.96040724 18.48837175 40.90991211 9.97680664 C40.90741455 8.92356201 40.90491699 7.87031738 40.90234375 6.78515625 C40.89710693 5.70113525 40.89187012 4.61711426 40.88647461 3.50024414 C41 1 41 1 42 0 C43.83115883 -0.09851171 45.66619933 -0.12972629 47.5 -0.125 C48.5003125 -0.12757813 49.500625 -0.13015625 50.53125 -0.1328125 C53 0 53 0 54 1 C54.09925773 2.95824698 54.12799414 4.92009897 54.12939453 6.88085938 C54.13254669 8.13886353 54.13569885 9.39686768 54.13894653 10.69299316 C54.13715675 12.07657913 54.1351058 13.46016478 54.1328125 14.84375 C54.13348559 16.25240089 54.13445565 17.66105166 54.13571167 19.06970215 C54.13718842 22.02548323 54.13503483 24.98123414 54.13037109 27.93701172 C54.12467381 31.73374584 54.12795293 35.53040928 54.13394356 39.32714081 C54.13754979 42.23696428 54.1364103 45.14677088 54.13381577 48.05659485 C54.13314667 49.456894 54.13397432 50.85719467 54.13629532 52.25749207 C54.13882283 54.21137464 54.13429033 56.16526255 54.12939453 58.11914062 C54.12859894 59.23309204 54.12780334 60.34704346 54.12698364 61.49475098 C54 64 54 64 53 65 C49.04 65 45.08 65 41 65 C41 56.42 41 47.84 41 39 C31.76 39 22.52 39 13 39 C13 47.25 13 55.5 13 64 C9 65 9 65 0 65 C0 43.55 0 22.1 0 0 Z " fill="#4A36FB" transform="translate(194,169)"/>
<path d="M0 0 C3.43493939 1.91563928 5.66259778 3.86573636 8.25 6.8125 C8.806875 7.43125 9.36375 8.05 9.9375 8.6875 C13.93961043 15.16710736 14.15297903 22.85432424 12.8203125 30.171875 C10.75806579 37.55522743 6.44614662 42.91848719 -0.125 46.8125 C-8.00101603 48.98519408 -12.08438429 48.09776388 -19.75 44.8125 C-20.08 51.0825 -20.41 57.3525 -20.75 63.8125 C-24.71 63.8125 -28.67 63.8125 -32.75 63.8125 C-32.75 42.6925 -32.75 21.5725 -32.75 -0.1875 C-29.12 -0.1875 -25.49 -0.1875 -21.75 -0.1875 C-21.09 0.4725 -20.43 1.1325 -19.75 1.8125 C-18.780625 1.3175 -17.81125 0.8225 -16.8125 0.3125 C-11.05291404 -2.13096071 -5.89833543 -1.86780622 0 0 Z M-19.75 13.8125 C-22.14593049 19.08987993 -22.10611411 24.34095457 -20.5625 29.859375 C-19.22068836 33.08488375 -17.88015223 34.28072338 -14.75 35.8125 C-10.03415938 36.70260422 -6.86053352 36.54497955 -2.8125 33.875 C0.21071929 29.38597742 1.80190085 25.04424928 0.87109375 19.59375 C-0.59959154 15.08925107 -2.4842795 12.13925664 -6.75 9.8125 C-12.32529287 9.00154831 -15.65735506 9.91021064 -19.75 13.8125 Z " fill="#4F40F5" transform="translate(498.75,187.1875)"/>
<path d="M0 0 C2.4375 1.5625 2.4375 1.5625 3.4375 2.5625 C4.0975 1.5725 4.7575 0.5825 5.4375 -0.4375 C7.78515625 -0.765625 7.78515625 -0.765625 10.5 -0.6875 C11.84771484 -0.66429687 11.84771484 -0.66429687 13.22265625 -0.640625 C15.4375 -0.4375 15.4375 -0.4375 16.4375 0.5625 C16.5303726 1.97475046 16.55496772 3.39158934 16.55102539 4.80688477 C16.55094986 5.70774307 16.55087433 6.60860138 16.55079651 7.53675842 C16.54563522 8.51591721 16.54047394 9.49507599 16.53515625 10.50390625 C16.5337413 11.50131332 16.53232635 12.4987204 16.53086853 13.52635193 C16.52525114 16.72593124 16.51269571 19.92544169 16.5 23.125 C16.49498724 25.28841045 16.49042395 27.45182199 16.48632812 29.61523438 C16.47527607 34.93101325 16.45852104 40.24675171 16.4375 45.5625 C12.48090734 46.88136422 9.61410573 46.82768132 5.4375 46.5625 C4.7775 45.5725 4.1175 44.5825 3.4375 43.5625 C2.9528125 43.85125 2.468125 44.14 1.96875 44.4375 C-2.79924821 47.07823747 -7.05830231 48.76468036 -12.5625 47.5625 C-16.03522712 46.12465167 -19.30413747 44.43205227 -22.5625 42.5625 C-22.5625 41.9025 -22.5625 41.2425 -22.5625 40.5625 C-23.5525 40.2325 -24.5425 39.9025 -25.5625 39.5625 C-29.43442357 34.39142793 -30.24643126 28.91661541 -30.125 22.625 C-30.11621826 21.83593262 -30.10743652 21.04686523 -30.09838867 20.23388672 C-29.82640324 12.46906354 -27.61157211 7.61157211 -22.125 2.125 C-15.24132519 -2.07236269 -7.51695589 -3.03315764 0 0 Z M-15.5625 13.5625 C-18.70169761 18.27129641 -18.34933275 23.06175932 -17.5625 28.5625 C-16.15352511 31.77689139 -14.57330244 33.74372954 -11.5625 35.5625 C-8.35828384 36.41695764 -5.76618079 36.41957328 -2.5625 35.5625 C0.74847385 32.95598868 4.10076708 29.85840628 4.73828125 25.51171875 C4.76444791 20.46155256 4.39967445 16.85254576 1.4375 12.5625 C-1.4777475 10.13312708 -3.28193286 9.59757089 -7.0625 9.125 C-11.1598411 9.63716764 -12.67512703 10.67512703 -15.5625 13.5625 Z " fill="#4C3AF7" transform="translate(284.5625,187.4375)"/>
<path d="M0 0 C5.33558052 3.63789581 8.10163845 7.70112837 9.75 13.875 C9.9193998 16.38739476 9.98841028 18.90769455 9.98046875 21.42578125 C9.98001053 22.12519333 9.97955231 22.82460541 9.9790802 23.54521179 C9.97607725 25.01168533 9.96825019 26.47815623 9.95581055 27.94458008 C9.93741271 30.19819297 9.9353021 32.45139754 9.93554688 34.70507812 C9.89763617 45.72736383 9.89763617 45.72736383 8.75 46.875 C6.89712498 46.94726502 5.04166122 46.9588122 3.1875 46.9375 C2.17558594 46.92847656 1.16367187 46.91945312 0.12109375 46.91015625 C-1.05259766 46.89275391 -1.05259766 46.89275391 -2.25 46.875 C-2.26458252 46.06345459 -2.27916504 45.25190918 -2.29418945 44.41577148 C-2.36897632 40.71421807 -2.46553761 37.01353621 -2.5625 33.3125 C-2.58505859 32.03568359 -2.60761719 30.75886719 -2.63085938 29.44335938 C-2.85089003 20.24284994 -2.85089003 20.24284994 -6.25 11.875 C-9.13861709 10.43069145 -11.04647701 10.49811494 -14.25 10.875 C-17.63896166 13.51605288 -19.08524288 15.02217911 -19.90942383 19.28833008 C-19.92513428 20.56087646 -19.94084473 21.83342285 -19.95703125 23.14453125 C-19.97215256 23.82553391 -19.98727386 24.50653656 -20.00285339 25.20817566 C-20.04560078 27.36829063 -20.05455435 29.52700493 -20.0625 31.6875 C-20.08565489 33.15824002 -20.11102231 34.62894698 -20.13867188 36.09960938 C-20.2013916 39.69137971 -20.23383125 43.28268404 -20.25 46.875 C-24.21 46.875 -28.17 46.875 -32.25 46.875 C-32.25 31.365 -32.25 15.855 -32.25 -0.125 C-28.62 -0.125 -24.99 -0.125 -21.25 -0.125 C-20.59 0.535 -19.93 1.195 -19.25 1.875 C-18.280625 1.38 -17.31125 0.885 -16.3125 0.375 C-10.79173078 -1.9718857 -5.63691067 -1.95123831 0 0 Z " fill="#4C3CF5" transform="translate(342.25,187.125)"/>
<path d="M0 0 C0.91136719 0.65871094 1.82273437 1.31742188 2.76171875 1.99609375 C5.1644273 4.14720978 5.68943354 4.92234158 5.9375 8.0625 C6 12 6 12 4 15 C0.71740278 15.79025489 -1.84359854 16.34011808 -5.125 15.375 C-7 14 -7 14 -9.25 11.6875 C-17.94884846 3.18635264 -27.98837021 0.47689146 -39.96142578 0.58056641 C-50.84834399 0.97864905 -59.77020991 4.93418421 -68 12 C-68.66 12.99 -69.32 13.98 -70 15 C-72.09375 15.3984375 -72.09375 15.3984375 -74.5 15.375 C-75.2940625 15.38273437 -76.088125 15.39046875 -76.90625 15.3984375 C-77.5971875 15.26695312 -78.288125 15.13546875 -79 15 C-81.40832094 11.38751859 -81.72360855 10.26125032 -81 6 C-75.6781838 -3.0508353 -64.9730876 -9.14313906 -55.125 -11.9375 C-53.42305132 -12.32117629 -51.71490243 -12.67914729 -50 -13 C-48.80375 -13.226875 -47.6075 -13.45375 -46.375 -13.6875 C-28.70859595 -15.32327815 -13.85568045 -11.05001307 0 0 Z " fill="#4F3FF7" transform="translate(156,170)"/>
<path d="M0 0 C1.51400391 0.01740234 1.51400391 0.01740234 3.05859375 0.03515625 C4.07050781 0.04417969 5.08242188 0.05320313 6.125 0.0625 C7.29869141 0.07990234 7.29869141 0.07990234 8.49609375 0.09765625 C8.66781788 2.51406004 8.8345191 4.93056476 8.99609375 7.34765625 C9.04523926 8.07259277 9.09438477 8.7975293 9.14501953 9.54443359 C9.42391413 13.95718744 9.49366298 18.29902119 9.37109375 22.72265625 C9.31564365 27.25108095 9.89640514 30.25011711 12.49609375 34.09765625 C14.37253136 35.97409386 16.99415076 35.27750612 19.48828125 35.328125 C21.81283703 35.21596962 21.81283703 35.21596962 24.49609375 33.09765625 C25.61718969 29.73436843 25.6873461 27.03999064 25.77734375 23.49609375 C25.81472656 22.201875 25.85210937 20.90765625 25.890625 19.57421875 C25.94438245 17.51565359 25.99648681 15.45705143 26.04833984 13.3984375 C26.0999432 11.41005127 26.15730036 9.42181695 26.21484375 7.43359375 C26.24513672 6.2429834 26.27542969 5.05237305 26.30664062 3.82568359 C26.49609375 1.09765625 26.49609375 1.09765625 27.49609375 0.09765625 C29.32725258 -0.00085546 31.16229308 -0.03207004 32.99609375 -0.02734375 C33.99640625 -0.02992188 34.99671875 -0.0325 36.02734375 -0.03515625 C38.49609375 0.09765625 38.49609375 0.09765625 39.49609375 1.09765625 C39.74009506 5.0844897 39.72471016 9.07517274 39.73632812 13.06884766 C39.74592042 15.06164594 39.77705948 17.05430314 39.80859375 19.046875 C39.87257589 34.86645793 39.87257589 34.86645793 34.62890625 41.4375 C33.96632813 41.96472656 33.30375 42.49195313 32.62109375 43.03515625 C31.96367187 43.58042969 31.30625 44.12570313 30.62890625 44.6875 C24.84839287 48.50941452 19.25977673 48.96688459 12.49609375 48.09765625 C6.36835028 46.15619297 1.89891486 43.31757137 -1.6640625 37.94140625 C-3.69072093 33.49218403 -3.63228224 28.89754669 -3.63671875 24.08203125 C-3.63767548 23.42559631 -3.6386322 22.76916138 -3.63961792 22.09283447 C-3.64029505 20.71455794 -3.63847348 19.33627813 -3.63427734 17.95800781 C-3.62888784 15.84042312 -3.63425561 13.72304721 -3.640625 11.60546875 C-3.63996481 10.26432245 -3.63868487 8.92317627 -3.63671875 7.58203125 C-3.63559082 6.36225586 -3.63446289 5.14248047 -3.63330078 3.88574219 C-3.45922562 0.1349152 -3.45922562 0.1349152 0 0 Z " fill="#4F41F6" transform="translate(417.50390625,186.90234375)"/>
<path d="M0 0 C7.01865079 5.18769841 7.01865079 5.18769841 8.28125 8.78125 C8.46875 11.46875 8.46875 11.46875 7.46875 14.21875 C5.46875 16.46875 5.46875 16.46875 2.28125 17.65625 C-2.45252923 17.42344119 -4.08505454 15.89955352 -7.63671875 12.97265625 C-13.411194 8.38879445 -20.75410309 8.96812537 -27.73046875 9.69921875 C-29.3355131 9.92385985 -30.93452871 10.19105934 -32.53125 10.46875 C-32.53125 11.12875 -32.53125 11.78875 -32.53125 12.46875 C-35.38673517 15.18434108 -38.35093476 17.22170728 -42.21875 18.03125 C-45.42849367 17.25050154 -46.62301188 16.15441846 -48.53125 13.46875 C-49.31136231 9.48150931 -48.78216393 7.87857608 -46.65625 4.40625 C-34.99072255 -8.22035783 -13.98454679 -8.45978756 0 0 Z " fill="#584CF5" transform="translate(138.53125,182.53125)"/>
<path d="M0 0 C1.11246094 -0.01933594 2.22492188 -0.03867188 3.37109375 -0.05859375 C8.04772174 0.6683729 10.37965426 3.05071534 13.375 6.5625 C15.15338873 10.86807271 15.23185907 14.84760925 14.5625 19.4375 C12.57558515 23.34036846 10.44297771 26.33095495 6.5625 28.4375 C0.58436019 29.79104109 -4.75765202 29.9601409 -10.1875 26.875 C-14.08372971 22.65408448 -15.47368058 18.53597352 -15.375 12.8125 C-13.04859388 4.43743795 -8.67715275 0.01003139 0 0 Z " fill="#4D3AFA" transform="translate(118.4375,199.5625)"/>
<path d="M0 0 C3.96 0 7.92 0 12 0 C13 1 13 1 13.11352539 3.50024414 C13.10828857 4.58426514 13.10305176 5.66828613 13.09765625 6.78515625 C13.09515869 7.83840088 13.09266113 8.89164551 13.09008789 9.97680664 C13.08098389 11.32508545 13.07187988 12.67336426 13.0625 14.0625 C13.041875 18.331875 13.02125 22.60125 13 27 C22.24 27 31.48 27 41 27 C40.96040724 18.48837175 40.96040724 18.48837175 40.90991211 9.97680664 C40.90741455 8.92356201 40.90491699 7.87031738 40.90234375 6.78515625 C40.89710693 5.70113525 40.89187012 4.61711426 40.88647461 3.50024414 C41 1 41 1 42 0 C43.83115883 -0.09851171 45.66619933 -0.12972629 47.5 -0.125 C48.5003125 -0.12757813 49.500625 -0.13015625 50.53125 -0.1328125 C53 0 53 0 54 1 C54.09925773 2.95824698 54.12799414 4.92009897 54.12939453 6.88085938 C54.13254669 8.13886353 54.13569885 9.39686768 54.13894653 10.69299316 C54.13715675 12.07657913 54.1351058 13.46016478 54.1328125 14.84375 C54.13348559 16.25240089 54.13445565 17.66105166 54.13571167 19.06970215 C54.13718842 22.02548323 54.13503483 24.98123414 54.13037109 27.93701172 C54.12467381 31.73374584 54.12795293 35.53040928 54.13394356 39.32714081 C54.13754979 42.23696428 54.1364103 45.14677088 54.13381577 48.05659485 C54.13314667 49.456894 54.13397432 50.85719467 54.13629532 52.25749207 C54.13882283 54.21137464 54.13429033 56.16526255 54.12939453 58.11914062 C54.12859894 59.23309204 54.12780334 60.34704346 54.12698364 61.49475098 C54 64 54 64 53 65 C49.04 65 45.08 65 41 65 C41 56.42 41 47.84 41 39 C31.76 39 22.52 39 13 39 C13 47.25 13 55.5 13 64 C9 65 9 65 0 65 C0 43.55 0 22.1 0 0 Z M3 2 C1.73349015 3.04310705 1.73349015 3.04310705 1.87974548 5.36012268 C1.88196609 6.40603073 1.88418671 7.45193878 1.88647461 8.52954102 C1.88655014 9.71068985 1.88662567 10.89183868 1.88670349 12.10877991 C1.89186478 13.3941716 1.89702606 14.67956329 1.90234375 16.00390625 C1.9037587 17.31205795 1.90517365 18.62020966 1.90663147 19.96800232 C1.9104559 23.45162859 1.92028554 26.93521339 1.93133545 30.41882324 C1.94155118 33.97126708 1.94612944 37.52371759 1.95117188 41.07617188 C1.96190788 48.05079832 1.9789834 55.02539717 2 62 C4.97 62.33 7.94 62.66 11 63 C11.02505615 62.28344238 11.0501123 61.56688477 11.07592773 60.82861328 C11.19169751 57.59388486 11.31450969 54.35946159 11.4375 51.125 C11.47681641 49.99707031 11.51613281 48.86914062 11.55664062 47.70703125 C11.59853516 46.63066406 11.64042969 45.55429688 11.68359375 44.4453125 C11.72025146 43.45031738 11.75690918 42.45532227 11.79467773 41.43017578 C12 39 12 39 13 37 C22.24 37 31.48 37 41 37 C41.33 45.91 41.66 54.82 42 64 C45.63 64 49.26 64 53 64 C52.67 43.54 52.34 23.08 52 2 C48.7 2 45.4 2 42 2 C42 10.58 42 19.16 42 28 C29.625 28.99 29.625 28.99 17 30 C17 29.34 17 28.68 17 28 C15.35 27.67 13.7 27.34 12 27 C11.67 18.75 11.34 10.5 11 2 C8.36 2 5.72 2 3 2 Z " fill="#5D5AE7" transform="translate(194,169)"/>
<path d="M0 0 C3.63 0 7.26 0 11 0 C11.66 0.66 12.32 1.32 13 2 C13.81210937 1.50886719 13.81210937 1.50886719 14.640625 1.0078125 C17.50719067 -0.21664767 19.6452987 -0.19892146 22.75 -0.125 C23.73484375 -0.10695312 24.7196875 -0.08890625 25.734375 -0.0703125 C26.85585938 -0.03550781 26.85585938 -0.03550781 28 0 C26.02 0.99 26.02 0.99 24 2 C24 3.98 24 5.96 24 8 C23.04287109 8.07347656 23.04287109 8.07347656 22.06640625 8.1484375 C20.82697266 8.26058594 20.82697266 8.26058594 19.5625 8.375 C18.73878906 8.44460937 17.91507812 8.51421875 17.06640625 8.5859375 C16.38449219 8.72257813 15.70257813 8.85921875 15 9 C14.67 9.66 14.34 10.32 14 11 C14 10.34 14 9.68 14 9 C13.34 9 12.68 9 12 9 C11.67 21.21 11.34 33.42 11 46 C7.37 46 3.74 46 0 46 C0 30.82 0 15.64 0 0 Z " fill="#4B3CF6" transform="translate(310,187)"/>
<path d="M0 0 C0 0.66 0 1.32 0 2 C-0.66 2 -1.32 2 -2 2 C-2 2.99 -2 3.98 -2 5 C-1.34 5 -0.68 5 0 5 C0 5.66 0 6.32 0 7 C6.6 7.33 13.2 7.66 20 8 C20.66 9.65 21.32 11.3 22 13 C22.495 13.495 22.495 13.495 23 14 C23.37336688 16.76172959 23.65488527 19.47563725 23.875 22.25 C23.96007812 23.01441406 24.04515625 23.77882812 24.1328125 24.56640625 C24.46421746 28.92739428 24.45866765 30.42174573 21.6328125 33.984375 C17.70927769 36.98814942 15.78076987 37.11468904 10.875 37.0625 C9.77929688 37.05347656 8.68359375 37.04445312 7.5546875 37.03515625 C6.71164062 37.02355469 5.86859375 37.01195312 5 37 C5 36.34 5 35.68 5 35 C3.02 35.495 3.02 35.495 1 36 C1.33 36.99 1.66 37.98 2 39 C1.01 39.66 0.02 40.32 -1 41 C-0.67 41.66 -0.34 42.32 0 43 C-1.65 42.67 -3.3 42.34 -5 42 C-5 41.34 -5 40.68 -5 40 C-5.99 39.67 -6.98 39.34 -8 39 C-11.87192357 33.82892793 -12.68393126 28.35411541 -12.5625 22.0625 C-12.55371826 21.27343262 -12.54493652 20.48436523 -12.53588867 19.67138672 C-12.2599798 11.79455457 -10.01915557 6.87872973 -4.3125 1.4375 C-2 0 -2 0 0 0 Z M2 13 C-1.13919761 17.70879641 -0.78683275 22.49925932 0 28 C1.40897489 31.21439139 2.98919756 33.18122954 6 35 C9.20421616 35.85445764 11.79631921 35.85707328 15 35 C18.31097385 32.39348868 21.66326708 29.29590628 22.30078125 24.94921875 C22.32694791 19.89905256 21.96217445 16.29004576 19 12 C16.0847525 9.57062708 14.28056714 9.03507089 10.5 8.5625 C6.4026589 9.07466764 4.88737297 10.11262703 2 13 Z " fill="#5041F4" transform="translate(267,188)"/>
<path d="M0 0 C1.50046875 0.00386719 1.50046875 0.00386719 3.03125 0.0078125 C4.0315625 0.00523437 5.031875 0.00265625 6.0625 0 C8.53125 0.1328125 8.53125 0.1328125 9.53125 1.1328125 C9.77525131 5.11964595 9.75986641 9.11032899 9.77148438 13.10400391 C9.78107667 15.09680219 9.81221573 17.08945939 9.84375 19.08203125 C9.90773214 34.90161418 9.90773214 34.90161418 4.6640625 41.47265625 C4.00148438 41.99988281 3.33890625 42.52710938 2.65625 43.0703125 C1.99882812 43.61558594 1.34140625 44.16085938 0.6640625 44.72265625 C-5.1078391 48.53887691 -10.71320584 49.01789716 -17.46875 48.1328125 C-23.38208854 46.13417014 -28.07577791 43.53072264 -31.46875 38.1328125 C-31.13875 37.4728125 -30.80875 36.8128125 -30.46875 36.1328125 C-28.75990995 37.75621055 -27.09428283 39.42600303 -25.46875 41.1328125 C-25.46875 41.7928125 -25.46875 42.4528125 -25.46875 43.1328125 C-22.49875 43.7928125 -19.52875 44.4528125 -16.46875 45.1328125 C-16.46875 45.7928125 -16.46875 46.4528125 -16.46875 47.1328125 C-13.00375 46.6378125 -13.00375 46.6378125 -9.46875 46.1328125 C-9.46875 45.8028125 -9.46875 45.4728125 -9.46875 45.1328125 C-5.01375 44.6378125 -5.01375 44.6378125 -0.46875 44.1328125 C-0.79875 42.8128125 -1.12875 41.4928125 -1.46875 40.1328125 C-0.14875 40.4628125 1.17125 40.7928125 2.53125 41.1328125 C2.53125 40.4728125 2.53125 39.8128125 2.53125 39.1328125 C3.19125 39.1328125 3.85125 39.1328125 4.53125 39.1328125 C4.53125 38.1428125 4.53125 37.1528125 4.53125 36.1328125 C3.54125 36.1328125 2.55125 36.1328125 1.53125 36.1328125 C1.53125 35.1428125 1.53125 34.1528125 1.53125 33.1328125 C0.87125 33.1328125 0.21125 33.1328125 -0.46875 33.1328125 C-0.46875 33.7928125 -0.46875 34.4528125 -0.46875 35.1328125 C-5.11724515 37.5320358 -9.37961074 37.33238659 -14.46875 37.1328125 C-14.46875 36.8028125 -14.46875 36.4728125 -14.46875 36.1328125 C-12.45052083 35.7421875 -10.43229167 35.3515625 -8.4140625 34.9609375 C-6.36358823 34.29678221 -6.36358823 34.29678221 -5.37084961 32.49975586 C-4.1918397 29.40625084 -4.15964979 26.74231039 -4.08984375 23.43359375 C-4.05568359 22.14259766 -4.02152344 20.85160156 -3.98632812 19.52148438 C-3.95898032 18.16277344 -3.93229555 16.80404902 -3.90625 15.4453125 C-3.84851168 12.77452064 -3.7830456 10.1041644 -3.71484375 7.43359375 C-3.69091553 6.24934814 -3.6669873 5.06510254 -3.64233398 3.8449707 C-3.40798176 0.18334079 -3.40798176 0.18334079 0 0 Z " fill="#4937F6" transform="translate(447.46875,186.8671875)"/>
<path d="M0 0 C0.33 0 0.66 0 1 0 C1 2.31 1 4.62 1 7 C4.05263664 7.98120464 5.94736336 7.98120464 9 7 C9.64453125 8.78125 9.64453125 8.78125 10 11 C7.37524381 16.41578653 2.41190993 19.42447109 -3.09375 21.33984375 C-12.5012441 23.47676109 -21.5521899 22.726941 -30 18 C-33.125 15.75 -33.125 15.75 -35 14 C-34.65657251 10.90915263 -33.74044345 9.67555431 -31.75 7.1875 C-29 5 -29 5 -26.5 5 C-23.79167677 6.08332929 -21.46364328 7.44401477 -19 9 C-14.29984825 10.56671725 -10.45914945 10.47702963 -5.75 8.9375 C-2.07383487 6.34747457 -1.42906523 4.20780318 0 0 Z " fill="#4F3EF7" transform="translate(393,230)"/>
<path d="M0 0 C1.58323688 -0.027193 3.16661062 -0.04648306 4.75 -0.0625 C6.07257813 -0.07990234 6.07257813 -0.07990234 7.421875 -0.09765625 C11.23006445 0.04659335 13.2656934 0.2656934 16 3 C16.639375 3.12375 17.27875 3.2475 17.9375 3.375 C20 4 20 4 21.8125 5.75 C23.36150093 8.68494913 22.64451796 9.77741019 22 13 C22.25997919 14.46860586 22.57866496 15.92737098 22.9375 17.375 C24.05209293 21.88608894 25.16051575 26.6789685 23 31 C21 31.33333333 19 31.66666667 17 32 C16.67 32.66 16.34 33.32 16 34 C16 32.68 16 31.36 16 30 C15.34 29.67 14.68 29.34 14 29 C14.0825 28.21625 14.165 27.4325 14.25 26.625 C13.95363387 22.32769116 12.60392066 19.17761231 10.875 15.26953125 C10 13 10 13 10 10 C6.49461443 8.03698408 2.86648272 7.04097612 -1 6 C-0.67 4.02 -0.34 2.04 0 0 Z " fill="#4C39F9" transform="translate(486,188)"/>
<path d="M0 0 C0 0.66 0 1.32 0 2 C5.40499739 4.31642745 10.12424799 5.13998916 16 5.125 C17.5159375 5.12886719 17.5159375 5.12886719 19.0625 5.1328125 C21.81714744 5.00826727 24.31838803 4.62110865 27 4 C27 3.34 27 2.68 27 2 C27.66 2 28.32 2 29 2 C29 2.99 29 3.98 29 5 C29.99 5 30.98 5 32 5 C32 5.99 32 6.98 32 8 C31.34 8 30.68 8 30 8 C30 8.66 30 9.32 30 10 C29.01 10 28.02 10 27 10 C27 10.99 27 11.98 27 13 C24.69 13.66 22.38 14.32 20 15 C20 15.33 20 15.66 20 16 C17.03 16 14.06 16 11 16 C11 15.34 11 14.68 11 14 C10.38511719 13.91363281 9.77023437 13.82726562 9.13671875 13.73828125 C2.42916094 12.57221458 2.42916094 12.57221458 0.125 9.5 C-0.24625 8.675 -0.6175 7.85 -1 7 C-1.99 6.34 -2.98 5.68 -4 5 C-4 3.68 -4 2.36 -4 1 C-2 0 -2 0 0 0 Z " fill="#4937F7" transform="translate(420,218)"/>
<path d="M0 0 C3.375 0.3125 3.375 0.3125 7 1 C7.66 1.99 8.32 2.98 9 4 C9.78375 3.979375 10.5675 3.95875 11.375 3.9375 C14 4 14 4 16.1875 6 C17.0846875 6.99 17.0846875 6.99 18 8 C18.66 8 19.32 8 20 8 C20.97866614 11.11393771 21.12975245 12.64318075 20 15.75 C18 18 18 18 14.8125 19.1875 C9.44734108 18.92363973 6.95029224 16.39209877 3 13 C2.01 12.34 1.02 11.68 0 11 C0.66 11 1.32 11 2 11 C2 10.34 2 9.68 2 9 C-0.475 8.01 -0.475 8.01 -3 7 C-2.01 4.69 -1.02 2.38 0 0 Z " fill="#5344F9" transform="translate(126,181)"/>
<path d="M0 0 C0 0.33 0 0.66 0 1 C-0.65073486 0.99476318 -1.30146973 0.98952637 -1.97192383 0.98413086 C-4.91877274 0.96335062 -7.86560623 0.9503365 -10.8125 0.9375 C-11.83666016 0.92912109 -12.86082031 0.92074219 -13.91601562 0.91210938 C-14.89892578 0.90888672 -15.88183594 0.90566406 -16.89453125 0.90234375 C-17.80050049 0.89710693 -18.70646973 0.89187012 -19.63989258 0.88647461 C-22.15284039 0.90079019 -22.15284039 0.90079019 -25 2 C-26.56118428 2.06740865 -28.1250252 2.08514456 -29.6875 2.0625 C-30.89986328 2.04896484 -30.89986328 2.04896484 -32.13671875 2.03515625 C-33.05904297 2.01775391 -33.05904297 2.01775391 -34 2 C-34.0928125 3.11375 -34.0928125 3.11375 -34.1875 4.25 C-35.27549868 7.93245708 -36.80268735 8.93950962 -40 11 C-41.98356483 11.71408334 -43.98315437 12.38617742 -46 13 C-46.99 13.66 -47.98 14.32 -49 15 C-49 14.34 -49 13.68 -49 13 C-49.66 13 -50.32 13 -51 13 C-51 13.99 -51 14.98 -51 16 C-53.375 17.75 -53.375 17.75 -56 19 C-56.66 18.67 -57.32 18.34 -58 18 C-54.64278311 10.29021046 -46.47390561 5.27359473 -39 2 C-25.5858624 -2.5407518 -13.76867455 -2.60929196 0 0 Z " fill="#5447F2" transform="translate(134,158)"/>
<path d="M0 0 C0.99 0.33 1.98 0.66 3 1 C6.16504164 8.82931354 5.90963694 17.07361492 3 24.94921875 C1.44872909 28.13053605 -0.5696355 30.43826444 -3 33 C-3.33 32.34 -3.66 31.68 -4 31 C-5.65 31 -7.3 31 -9 31 C-9.33 28.69 -9.66 26.38 -10 24 C-11.98 24.99 -11.98 24.99 -14 26 C-13.071875 24.9790625 -13.071875 24.9790625 -12.125 23.9375 C-9.6680932 20.54118766 -8.95054395 18.03981179 -8 14 C-7.34 14 -6.68 14 -6 14 C-6.04125 14.928125 -6.0825 15.85625 -6.125 16.8125 C-6.27136339 20.15809719 -6.27136339 20.15809719 -4 23 C-2.02 22.67 -0.04 22.34 2 22 C2.17922057 16.35455191 1.87103055 11.50830399 0.4375 6.04296875 C0 4 0 4 0 0 Z " fill="#594FF2" transform="translate(507,197)"/>
<path d="M0 0 C1.25554687 -0.00128906 2.51109375 -0.00257813 3.8046875 -0.00390625 C4.46178711 -0.00181152 5.11888672 0.0002832 5.79589844 0.00244141 C7.80411335 0.00779016 9.81210459 0.00249559 11.8203125 -0.00390625 C13.07585937 -0.00261719 14.33140625 -0.00132812 15.625 0 C16.78644531 0.00112793 17.94789063 0.00225586 19.14453125 0.00341797 C21.8125 0.1328125 21.8125 0.1328125 22.8125 1.1328125 C22.90008003 3.13246232 22.91946576 5.1351736 22.91015625 7.13671875 C22.90693359 8.35166016 22.90371094 9.56660156 22.90039062 10.81835938 C22.89201172 12.09775391 22.88363281 13.37714844 22.875 14.6953125 C22.87048828 15.97857422 22.86597656 17.26183594 22.86132812 18.58398438 C22.84949545 21.76697272 22.83301068 24.94987012 22.8125 28.1328125 C26.4425 28.1328125 30.0725 28.1328125 33.8125 28.1328125 C33.8125 28.4628125 33.8125 28.7928125 33.8125 29.1328125 C29.8525 29.1328125 25.8925 29.1328125 21.8125 29.1328125 C21.8125 20.5528125 21.8125 11.9728125 21.8125 3.1328125 C12.5725 3.1328125 3.3325 3.1328125 -6.1875 3.1328125 C-6.1875 11.3828125 -6.1875 19.6328125 -6.1875 28.1328125 C-6.5175 28.1328125 -6.8475 28.1328125 -7.1875 28.1328125 C-7.21636338 23.65365922 -7.23425187 19.17452959 -7.25 14.6953125 C-7.25837891 13.41591797 -7.26675781 12.13652344 -7.27539062 10.81835938 C-7.27861328 9.60341797 -7.28183594 8.38847656 -7.28515625 7.13671875 C-7.29039307 6.01080322 -7.29562988 4.8848877 -7.30102539 3.72485352 C-7.08582804 -1.18858783 -4.29306662 0.00416918 0 0 Z " fill="#777AE8" transform="translate(213.1875,204.8671875)"/>
<path d="M0 0 C1.51400391 0.01740234 1.51400391 0.01740234 3.05859375 0.03515625 C4.07050781 0.04417969 5.08242187 0.05320313 6.125 0.0625 C6.90746094 0.07410156 7.68992188 0.08570313 8.49609375 0.09765625 C8.49609375 0.42765625 8.49609375 0.75765625 8.49609375 1.09765625 C5.19609375 1.42765625 1.89609375 1.75765625 -1.50390625 2.09765625 C-1.83390625 10.67765625 -2.16390625 19.25765625 -2.50390625 28.09765625 C-9.43174706 31.56157666 -19.90252693 30.23232636 -27.50390625 30.09765625 C-27.50390625 29.43765625 -27.50390625 28.77765625 -27.50390625 28.09765625 C-29.15390625 28.09765625 -30.80390625 28.09765625 -32.50390625 28.09765625 C-32.50390625 19.18765625 -32.50390625 10.27765625 -32.50390625 1.09765625 C-32.17390625 1.09765625 -31.84390625 1.09765625 -31.50390625 1.09765625 C-31.50390625 9.67765625 -31.50390625 18.25765625 -31.50390625 27.09765625 C-22.26390625 27.09765625 -13.02390625 27.09765625 -3.50390625 27.09765625 C-3.54349901 18.586028 -3.54349901 18.586028 -3.59399414 10.07446289 C-3.59774048 8.49459595 -3.59774048 8.49459595 -3.6015625 6.8828125 C-3.60941772 5.25678101 -3.60941772 5.25678101 -3.61743164 3.59790039 C-3.46433572 0.22616857 -3.37398964 0.13159086 0 0 Z " fill="#767AE8" transform="translate(238.50390625,168.90234375)"/>
<path d="M0 0 C-0.309375 1.36125 -0.309375 1.36125 -0.625 2.75 C-1.28923567 5.90566468 -1.28923567 5.90566468 0.0625 8.125 C0.5265625 9.053125 0.5265625 9.053125 1 10 C0.125 12.25 0.125 12.25 -1 14 C-1.45375 12.865625 -1.9075 11.73125 -2.375 10.5625 C-3.57095806 6.95278308 -3.57095806 6.95278308 -6 6 C-8.87306228 5.49904977 -8.87306228 5.49904977 -12 6 C-15.38896166 8.64105288 -16.83524288 10.14717911 -17.65942383 14.41333008 C-17.67513428 15.68587646 -17.69084473 16.95842285 -17.70703125 18.26953125 C-17.72215256 18.95053391 -17.73727386 19.63153656 -17.75285339 20.33317566 C-17.79560078 22.49329063 -17.80455435 24.65200493 -17.8125 26.8125 C-17.83565489 28.28324002 -17.86102231 29.75394698 -17.88867188 31.22460938 C-17.9513916 34.81637971 -17.98383125 38.40768404 -18 42 C-21.96 42 -25.92 42 -30 42 C-30 41.67 -30 41.34 -30 41 C-26.37 41 -22.74 41 -19 41 C-19.00523682 39.95021973 -19.01047363 38.90043945 -19.01586914 37.81884766 C-19.03394239 33.93132375 -19.04544054 30.04380356 -19.05493164 26.15625 C-19.05996653 24.47232438 -19.06679481 22.78840314 -19.07543945 21.10449219 C-19.08754196 18.68683797 -19.09323668 16.26924144 -19.09765625 13.8515625 C-19.10281754 13.0963028 -19.10797882 12.34104309 -19.11329651 11.56289673 C-19.11387171 6.22774341 -19.11387171 6.22774341 -18 4 C-13.71230214 2.70069762 -9.43489655 2.92483226 -5 3 C-5 2.34 -5 1.68 -5 1 C-2 0 -2 0 0 0 Z " fill="#6163E5" transform="translate(340,192)"/>
<path d="M0 0 C2.91517292 1.07401108 4.77810176 1.77810176 7 4 C7.44319267 6.8088436 7.74152732 9.48624333 7.9375 12.3125 C8.01806641 13.07240234 8.09863281 13.83230469 8.18164062 14.61523438 C8.48708152 18.95551182 8.44423102 20.44160087 5.62890625 23.98046875 C1.70930294 26.99151616 -0.21868214 27.11469487 -5.125 27.0625 C-6.22070312 27.05347656 -7.31640625 27.04445312 -8.4453125 27.03515625 C-9.70988281 27.01775391 -9.70988281 27.01775391 -11 27 C-11 26.34 -11 25.68 -11 25 C-12.65 25 -14.3 25 -16 25 C-16 22.69 -16 20.38 -16 18 C-14 20 -12 22 -10 24 C-6.94602448 24.44169067 -4.04969923 24.47716383 -1 24 C1.75569447 21.81840855 3.43588747 20.12822506 5 17 C5.45231534 11.74051932 5.29795023 6.83778997 3 2 C2.01 1.67 1.02 1.34 0 1 C0 0.67 0 0.34 0 0 Z " fill="#554FE7" transform="translate(283,198)"/>
<path d="M0 0 C2.1464753 0.11344376 4.29220592 0.24106345 6.4375 0.375 C8.22994141 0.47941406 8.22994141 0.47941406 10.05859375 0.5859375 C11.02925781 0.72257813 11.99992187 0.85921875 13 1 C13.33 1.66 13.66 2.32 14 3 C13.67 3.66 13.34 4.32 13 5 C12.01 5 11.02 5 10 5 C9.67 5.99 9.34 6.98 9 8 C6.61493049 9.70362108 5.31829582 10.01515694 2.375 9.875 C0 9 0 9 -1.3125 7.125 C-2 5 -2 5 -2 2 C-1.34 2 -0.68 2 0 2 C0 1.34 0 0.68 0 0 Z " fill="#4937F9" transform="translate(377,222)"/>
<path d="M0 0 C0.66 1.32 1.32 2.64 2 4 C-2.74041353 10.06600029 -6.5359323 14.25910946 -14.53515625 15.34375 C-21.69160094 15.74636292 -27.09633873 14.05260607 -33 10 C-35.625 7.1875 -35.625 7.1875 -37 5 C-36.67 4.34 -36.34 3.68 -36 3 C-34.29115995 4.62339805 -32.62553283 6.29319053 -31 8 C-31 8.66 -31 9.32 -31 10 C-26.545 10.99 -26.545 10.99 -22 12 C-22 12.66 -22 13.32 -22 14 C-18.535 13.505 -18.535 13.505 -15 13 C-15 12.67 -15 12.34 -15 12 C-10.545 11.505 -10.545 11.505 -6 11 C-6.33 9.68 -6.66 8.36 -7 7 C-5.68 7.33 -4.36 7.66 -3 8 C-3 7.34 -3 6.68 -3 6 C-2.34 6 -1.68 6 -1 6 C-0.67 4.02 -0.34 2.04 0 0 Z " fill="#7A80F2" transform="translate(453,220)"/>
<path d="M0 0 C2.54563057 0.96558401 3.94635204 1.93868805 5.75 4 C7.57028727 8.36868945 7.68041073 12.33432639 7 17 C5.01308515 20.90286846 2.88047771 23.89345495 -1 26 C-5.90671607 27.11095458 -10.08505506 27.08128789 -15 26 C-15.33 25.34 -15.66 24.68 -16 24 C-15.19175781 24.01160156 -14.38351563 24.02320313 -13.55078125 24.03515625 C-12.48214844 24.04417969 -11.41351563 24.05320313 -10.3125 24.0625 C-9.25675781 24.07410156 -8.20101562 24.08570313 -7.11328125 24.09765625 C-4.23949629 24.00751243 -1.7532384 23.82597152 1 23 C2.37466625 20.52363988 2.37466625 20.52363988 3 18 C3.66 18 4.32 18 5 18 C5 14.04 5 10.08 5 6 C4.34 6 3.68 6 3 6 C2.67 5.34 2.34 4.68 2 4 C-0.01669827 2.86649466 -0.01669827 2.86649466 -2 2 C-1.34 1.34 -0.68 0.68 0 0 Z " fill="#6969E5" transform="translate(126,202)"/>
<path d="M0 0 C0.89589844 0.01417969 1.79179687 0.02835938 2.71484375 0.04296875 C4.06255859 0.05263672 4.06255859 0.05263672 5.4375 0.0625 C7.65234375 0.23046875 7.65234375 0.23046875 8.65234375 1.23046875 C8.75574267 2.68243128 8.79084638 4.13934684 8.79760742 5.5949707 C8.80398727 6.52295975 8.81036713 7.45094879 8.81694031 8.40705872 C8.81805313 9.41741684 8.81916595 10.42777496 8.8203125 11.46875 C8.8236409 12.50106247 8.8269693 13.53337494 8.83039856 14.5969696 C8.83547325 16.7868912 8.83780672 18.97682057 8.83764648 21.16674805 C8.83982763 24.51819653 8.85796298 27.86931319 8.87695312 31.22070312 C8.87988799 33.34505095 8.88187216 35.46940035 8.8828125 37.59375 C8.88999802 38.59803543 8.89718353 39.60232086 8.90458679 40.63703918 C8.90151016 41.57448471 8.89843353 42.51193024 8.89526367 43.4777832 C8.89668869 44.3008345 8.89811371 45.1238858 8.89958191 45.97187805 C8.65234375 48.23046875 8.65234375 48.23046875 6.65234375 52.23046875 C6.98234375 35.73046875 7.31234375 19.23046875 7.65234375 2.23046875 C4.68234375 2.23046875 1.71234375 2.23046875 -1.34765625 2.23046875 C-1.34765625 2.89046875 -1.34765625 3.55046875 -1.34765625 4.23046875 C-2.66765625 4.23046875 -3.98765625 4.23046875 -5.34765625 4.23046875 C-3.96148275 1.45812175 -3.1591393 0.31013181 0 0 Z " fill="#636AD3" transform="translate(396.34765625,186.76953125)"/>
<path d="M0 0 C1.81242052 -0.02687279 3.62495233 -0.04633715 5.4375 -0.0625 C6.44683594 -0.07410156 7.45617187 -0.08570313 8.49609375 -0.09765625 C11 0 11 0 12 1 C12.21847642 5.07908332 12.18579043 9.16140373 12.18530273 13.24584961 C12.18747998 15.29367129 12.20560553 17.34094628 12.22460938 19.38867188 C12.22750977 21.32516602 12.22750977 21.32516602 12.23046875 23.30078125 C12.23457764 24.48841064 12.23868652 25.67604004 12.24291992 26.8996582 C12 30 12 30 10 34 C10 23.44 10 12.88 10 2 C7.36 2 4.72 2 2 2 C1.34 1.34 0.68 0.68 0 0 Z " fill="#6E6EE6" transform="translate(445,187)"/>
<path d="M0 0 C3.0076626 4.5114939 3.13717202 8.05248422 3.09765625 13.29296875 C3.0962413 13.99899734 3.09482635 14.70502594 3.09336853 15.43244934 C3.08777764 17.68417626 3.07522688 19.93580321 3.0625 22.1875 C3.05748382 23.71549335 3.05292112 25.24348827 3.04882812 26.77148438 C3.0378112 30.51436135 3.02055287 34.25716373 3 38 C2.01 37.67 1.02 37.34 0 37 C0 24.79 0 12.58 0 0 Z " fill="#7571F4" transform="translate(349,195)"/>
<path d="M0 0 C0.33 0 0.66 0 1 0 C1 14.85 1 29.7 1 45 C-1.75078884 45.91692961 -3.35948913 46.10886083 -6.1875 46.0625 C-7.445625 46.041875 -8.70375 46.02125 -10 46 C-10.66 44.35 -11.32 42.7 -12 41 C-11.34 41 -10.68 41 -10 41 C-10 41.66 -10 42.32 -10 43 C-6.7 43.33 -3.4 43.66 0 44 C0 29.48 0 14.96 0 0 Z " fill="#8E9BED" transform="translate(300,188)"/>
<path d="M0 0 C3.3 0 6.6 0 10 0 C10 6.93 10 13.86 10 21 C9.67 21 9.34 21 9 21 C8.67 15.06 8.34 9.12 8 3 C6.02 3 4.04 3 2 3 C1.67 10.59 1.34 18.18 1 26 C0.67 26 0.34 26 0 26 C0 17.42 0 8.84 0 0 Z " fill="#4135EE" transform="translate(236,171)"/>
<path d="M0 0 C0 0.33 0 0.66 0 1 C-0.60360352 0.98952637 -1.20720703 0.97905273 -1.82910156 0.96826172 C-16.82985058 0.62149492 -16.82985058 0.62149492 -31.66015625 2.5625 C-34.15464531 3.02891532 -36.46810879 3.0722108 -39 3 C-26.92286454 -3.85862014 -12.98797114 -2.4613414 0 0 Z " fill="#878ADD" transform="translate(134,158)"/>
<path d="M0 0 C0.66 0 1.32 0 2 0 C2.33 0.66 2.66 1.32 3 2 C3.66 1.34 4.32 0.68 5 0 C5.99 0 6.98 0 8 0 C6.72168567 3.97697791 4.31875268 5.25108607 0.8515625 7.16796875 C-3.52553648 9.13489297 -7.46790235 9.10677868 -12.25 9.0625 C-13.51328125 9.05347656 -14.7765625 9.04445312 -16.078125 9.03515625 C-17.04234375 9.02355469 -18.0065625 9.01195312 -19 9 C-19 8.67 -19 8.34 -19 8 C-17.64455078 7.92652344 -17.64455078 7.92652344 -16.26171875 7.8515625 C-15.08222656 7.77679688 -13.90273438 7.70203125 -12.6875 7.625 C-10.92986328 7.52058594 -10.92986328 7.52058594 -9.13671875 7.4140625 C-5.84300113 7.21386253 -5.84300113 7.21386253 -3 5 C-2.484375 4.13375 -1.96875 3.2675 -1.4375 2.375 C-0.963125 1.59125 -0.48875 0.8075 0 0 Z " fill="#5F57EE" transform="translate(392,243)"/>
<path d="M0 0 C0.33 0 0.66 0 1 0 C1.02505615 0.86802246 1.0501123 1.73604492 1.07592773 2.63037109 C1.17099484 5.84713163 1.27023203 9.06372849 1.37231445 12.28027344 C1.41565846 13.6731259 1.45733396 15.06603131 1.49731445 16.45898438 C1.55502932 18.45976651 1.61921869 20.46035859 1.68359375 22.4609375 C1.72025146 23.66540527 1.75690918 24.86987305 1.79467773 26.11083984 C1.81052987 28.93996367 1.81052987 28.93996367 3 31 C2.67 31.66 2.34 32.32 2 33 C1.34 33 0.68 33 0 33 C0 33.66 0 34.32 0 35 C-2.40545638 36.20272819 -3.94996953 36.10071472 -6.625 36.0625 C-7.85089844 36.04896484 -7.85089844 36.04896484 -9.1015625 36.03515625 C-9.72804688 36.02355469 -10.35453125 36.01195312 -11 36 C-11 35.67 -11 35.34 -11 35 C-8.98177083 34.609375 -6.96354167 34.21875 -4.9453125 33.828125 C-2.8952169 33.16422855 -2.8952169 33.16422855 -1.90429688 31.36914062 C-0.72098276 28.26901098 -0.67320284 25.58170797 -0.5859375 22.265625 C-0.54726563 20.97011719 -0.50859375 19.67460937 -0.46875 18.33984375 C-0.43729733 16.97656716 -0.40604993 15.61328582 -0.375 14.25 C-0.33679531 12.87106972 -0.29774213 11.49216266 -0.2578125 10.11328125 C-0.16351996 6.74232282 -0.0779178 3.37137022 0 0 Z " fill="#8D94F5" transform="translate(444,188)"/>
<path d="M0 0 C0.99 0.33 1.98 0.66 3 1 C6.56934503 9.82943244 5.51315241 18.3425887 2 27 C1 25 1 25 1.4609375 22.80859375 C2.10986238 19.42760109 1.9005012 16.49137301 1.625 13.0625 C1.53476562 11.87785156 1.44453125 10.69320312 1.3515625 9.47265625 C1.02842374 6.28076338 0.56862717 3.15636269 0 0 Z " fill="#6664E5" transform="translate(507,197)"/>
<path d="M0 0 C0.33 0.66 0.66 1.32 1 2 C0 5 0 5 -1.65625 6.171875 C-4.6912633 7.24424636 -7.28504024 7.26474752 -10.5 7.25 C-11.6240625 7.25515625 -12.748125 7.2603125 -13.90625 7.265625 C-16.85041743 7.01284295 -18.51695505 6.53364541 -21 5 C-21 4.34 -21 3.68 -21 3 C-20.05898438 3.10699219 -19.11796875 3.21398437 -18.1484375 3.32421875 C-16.90320313 3.44410156 -15.65796875 3.56398437 -14.375 3.6875 C-13.14523437 3.81511719 -11.91546875 3.94273437 -10.6484375 4.07421875 C-6.47626053 3.98934577 -3.03646869 3.03646869 0 0 Z " fill="#564EE5" transform="translate(391,236)"/>
<path d="M0 0 C0 0.99 0 1.98 0 3 C0.99 3.33 1.98 3.66 3 4 C4.35439668 6.70879335 4.06501451 9.00933268 4 12 C2 9 2 9 1.1875 7 C-0.45383349 4.23564885 -2.08756019 3.32383628 -5 2 C-9.23150665 1.55921806 -12.16730743 2.19637997 -16 4 C-16 3.34 -16 2.68 -16 2 C-10.48351346 -1.62926746 -6.21369499 -1.01924246 0 0 Z " fill="#6664E5" transform="translate(390,196)"/>
<path d="M0 0 C-1.98 0.99 -1.98 0.99 -4 2 C-4 3.98 -4 5.96 -4 8 C-8.455 8.495 -8.455 8.495 -13 9 C-13.33 8.34 -13.66 7.68 -14 7 C-12.02 6.67 -10.04 6.34 -8 6 C-8.66 4.35 -9.32 2.7 -10 1 C-6.78548731 -0.60725635 -3.56387464 -0.05748185 0 0 Z " fill="#4736F4" transform="translate(338,187)"/>
<path d="M0 0 C7.53139921 0.91194395 13.16760147 3.06005901 19 8 C19.99 9.485 19.99 9.485 21 11 C20.01 11 19.02 11 18 11 C17.34 10.01 16.68 9.02 16 8 C12.91634129 7.7497843 12.91634129 7.7497843 10 8 C9.67 7.01 9.34 6.02 9 5 C7.16425007 4.0545706 7.16425007 4.0545706 5 3.4375 C2.8125 2.74609375 2.8125 2.74609375 1 2 C0.67 1.34 0.34 0.68 0 0 Z " fill="#6D69E9" transform="translate(124,178)"/>
<path d="M0 0 C0 0.99 0 1.98 0 3 C-0.66 2.67 -1.32 2.34 -2 2 C-2 1.34 -2 0.68 -2 0 C-7.61 0 -13.22 0 -19 0 C-19.33 0.99 -19.66 1.98 -20 3 C-20.33 2.34 -20.66 1.68 -21 1 C-21.66 0.67 -22.32 0.34 -23 0 C-14.82602085 -4.1739468 -8.17397915 -4.1739468 0 0 Z " fill="#6666E8" transform="translate(502,189)"/>
<path d="M0 0 C0.99 0.33 1.98 0.66 3 1 C3 1.66 3 2.32 3 3 C4.32 3.33 5.64 3.66 7 4 C7 4.66 7 5.32 7 6 C7.33 6.99 7.66 7.98 8 9 C5.69 9 3.38 9 1 9 C-1.09230769 4.56923077 -1.09230769 4.56923077 -0.625 1.6875 C-0.41875 1.130625 -0.2125 0.57375 0 0 Z " fill="#4637F4" transform="translate(77,175)"/>
<path d="M0 0 C-0.66 0 -1.32 0 -2 0 C-2.33 0.99 -2.66 1.98 -3 3 C-3.99 3 -4.98 3 -6 3 C-6 3.99 -6 4.98 -6 6 C-7.96466413 7.06775224 -9.96855359 8.06553465 -12 9 C-12.66 8.67 -13.32 8.34 -14 8 C-6.17409766 -2.05803255 -6.17409766 -2.05803255 0 0 Z " fill="#6968EB" transform="translate(375,188)"/>
<path d="M0 0 C3.79450934 0.39253545 5.51015791 2.24338912 8 5 C7.34 6.32 6.68 7.64 6 9 C5.67 8.34 5.34 7.68 5 7 C3.68 7.33 2.36 7.66 1 8 C0.34 5.69 -0.32 3.38 -1 1 C-0.67 0.67 -0.34 0.34 0 0 Z " fill="#5244F2" transform="translate(341,188)"/>
<path d="M0 0 C2.97 0.33 5.94 0.66 9 1 C7.50231889 3.99536223 6.07098217 4.5873482 3 6 C-0.65767952 6.54530806 -4.30808564 6.81249472 -8 7 C-5.33788628 5.62420173 -2.93703384 4.62936439 0 4 C0 2.68 0 1.36 0 0 Z " fill="#6360EC" transform="translate(386,226)"/>
<path d="M0 0 C-0.33 0.66 -0.66 1.32 -1 2 C-1.99 2.33 -2.98 2.66 -4 3 C-3.67 3.66 -3.34 4.32 -3 5 C-10.42857143 6.28571429 -10.42857143 6.28571429 -14 5 C-10.33750181 1.67045619 -5.02462001 -2.51231 0 0 Z " fill="#4636F0" transform="translate(111,180)"/>
<path d="M0 0 C-0.20625 0.9075 -0.4125 1.815 -0.625 2.75 C-1.28923567 5.90566468 -1.28923567 5.90566468 0.0625 8.125 C0.371875 8.74375 0.68125 9.3625 1 10 C0.125 12.25 0.125 12.25 -1 14 C-2.31626692 10.38026598 -3 7.90432869 -3 4 C-6.3 4 -9.6 4 -13 4 C-13 3.67 -13 3.34 -13 3 C-10.36 3 -7.72 3 -5 3 C-5 2.34 -5 1.68 -5 1 C-2 0 -2 0 0 0 Z " fill="#594EEF" transform="translate(340,192)"/>
<path d="M0 0 C-5.97332123 3.4753869 -10.11509775 4.57374185 -17 4 C-17 3.34 -17 2.68 -17 2 C-17.66 1.67 -18.32 1.34 -19 1 C-18.35933594 1.02320313 -17.71867187 1.04640625 -17.05859375 1.0703125 C-12.85026304 1.15811672 -9.04228918 1.21086382 -5 -0.0625 C-2 -1 -2 -1 0 0 Z " fill="#7479EA" transform="translate(503,231)"/>
<path d="M0 0 C0.33 0 0.66 0 1 0 C1.02578125 0.62648437 1.0515625 1.25296875 1.078125 1.8984375 C1.13484375 2.71570313 1.1915625 3.53296875 1.25 4.375 C1.29640625 5.18710938 1.3428125 5.99921875 1.390625 6.8359375 C1.78665444 9.17724304 1.78665444 9.17724304 3.984375 10.2265625 C4.64953125 10.48179687 5.3146875 10.73703125 6 11 C6.33 11.33 6.66 11.66 7 12 C8.34747084 12.23075082 9.70377565 12.41153063 11.0625 12.5625 C12.361875 12.706875 13.66125 12.85125 15 13 C11.5980513 15.09350689 8.94727588 15.17942163 5 15 C4.67 14.01 4.34 13.02 4 12 C3.319375 11.62875 2.63875 11.2575 1.9375 10.875 C0 9 0 9 -0.26171875 6.80859375 C-0.25100841 4.52729165 -0.1716642 2.27455059 0 0 Z " fill="#848CEC" transform="translate(477,210)"/>
<path d="M0 0 C0.66 0 1.32 0 2 0 C2.99752325 3.17393763 3.13012788 4.65554385 1.9375 7.8125 C0 10 0 10 -3.1875 10.3125 C-4.115625 10.209375 -5.04375 10.10625 -6 10 C-6.33 9.34 -6.66 8.68 -7 8 C-5.02 8 -3.04 8 -1 8 C-1.20625 7.4225 -1.4125 6.845 -1.625 6.25 C-2.08661261 3.48032433 -1.42944945 2.35438733 0 0 Z " fill="#4B51E2" transform="translate(144,189)"/>
<path d="M0 0 C2.4375 1.25 2.4375 1.25 5 3 C5.33 4.32 5.66 5.64 6 7 C10.455 7.99 10.455 7.99 15 9 C15 9.66 15 10.32 15 11 C9.07287965 10.43551235 5.07879233 8.35596464 1.125 3.875 C0 2 0 2 0 0 Z " fill="#7071E6" transform="translate(416,223)"/>
<path d="M0 0 C3.04221065 -0.08132642 6.0822238 -0.14065374 9.125 -0.1875 C9.9809375 -0.21263672 10.836875 -0.23777344 11.71875 -0.26367188 C16.94615526 -0.32398809 20.43281324 0.14738007 25 3 C22.27507702 4.0480473 21.14676212 4.0517984 18.34375 3.0625 C14.58805351 1.86910112 11.02908644 1.55658542 7.125 1.375 C6.43664062 1.33632812 5.74828125 1.29765625 5.0390625 1.2578125 C3.35976754 1.16451834 1.67992233 1.08121762 0 1 C0 0.67 0 0.34 0 0 Z " fill="#6F71EB" transform="translate(111,169)"/>
<path d="M0 0 C2 2 4 4 6 6 C7.85287502 6.07226502 9.70833878 6.0838122 11.5625 6.0625 C12.57441406 6.05347656 13.58632813 6.04445312 14.62890625 6.03515625 C15.41136719 6.02355469 16.19382812 6.01195312 17 6 C16.67 6.66 16.34 7.32 16 8 C14.2709226 8.02725341 12.54171824 8.04650987 10.8125 8.0625 C9.36810547 8.07990234 9.36810547 8.07990234 7.89453125 8.09765625 C5.14423487 8.00486622 2.67520409 7.62111685 0 7 C0 4.69 0 2.38 0 0 Z " fill="#7B82EB" transform="translate(267,216)"/>
<path d="M0 0 C2.91517292 1.07401108 4.77810176 1.77810176 7 4 C7.14507695 6.74485593 7.18652423 9.38480543 7.125 12.125 C7.11597656 12.87910156 7.10695313 13.63320312 7.09765625 14.41015625 C7.0740687 16.27357254 7.03819719 18.13682593 7 20 C6.34 19.67 5.68 19.34 5 19 C5.02320313 18.27554688 5.04640625 17.55109375 5.0703125 16.8046875 C5.28632044 9.18346379 5.28632044 9.18346379 3 2 C2.01 1.67 1.02 1.34 0 1 C0 0.67 0 0.34 0 0 Z " fill="#6F6FE5" transform="translate(283,198)"/>
<path d="M0 0 C5.50366792 -0.32374517 9.43672206 -0.53286034 14 3 C13.34 3.66 12.68 4.32 12 5 C11.01 4.34 10.02 3.68 9 3 C4.7524747 2.69108907 1.6413547 2.66953299 -2 5 C-1.34 3.35 -0.68 1.7 0 0 Z " fill="#6465E4" transform="translate(483,195)"/>
<path d="M0 0 C0 3 0 3 -1 5.5625 C-2.31908087 10.09684048 -2.16675066 14.31245373 -2 19 C-4.43005073 16.56994927 -4.74069772 14.59938908 -5.109375 11.23828125 C-4.91087765 7.17617476 -2.89710143 2.89710143 0 0 Z " fill="#6E71E8" transform="translate(108,203)"/>
<path d="M0 0 C1.9451 2.91765 2.45276317 4.62537285 3 8 C5.31 8 7.62 8 10 8 C10 6.35 10 4.7 10 3 C10.99 3.99 11.98 4.98 13 6 C12.01 7.485 12.01 7.485 11 9 C8.90625 9.3984375 8.90625 9.3984375 6.5 9.375 C5.7059375 9.38273438 4.911875 9.39046875 4.09375 9.3984375 C3.4028125 9.26695312 2.711875 9.13546875 2 9 C-0.29013653 5.5647952 -0.17842973 4.014669 0 0 Z " fill="#777AE5" transform="translate(75,176)"/>
<path d="M0 0 C3.3 0 6.6 0 10 0 C9.67 0.66 9.34 1.32 9 2 C6.68925595 2.74118205 4.35188447 3.40206327 2 4 C0.7934375 4.309375 0.7934375 4.309375 -0.4375 4.625 C-0.953125 4.74875 -1.46875 4.8725 -2 5 C-1.34 3.35 -0.68 1.7 0 0 Z " fill="#5563F0" transform="translate(290,187)"/>
<path d="M0 0 C5.57608696 2.15217391 5.57608696 2.15217391 7 5 C4.23723823 4.47731534 1.6739124 3.89130413 -1 3 C-1 2.34 -1 1.68 -1 1 C-6.94 1.495 -6.94 1.495 -13 2 C-8.74253693 -0.83830872 -4.99804843 -0.5199833 0 0 Z " fill="#777AEB" transform="translate(281,186)"/>
<path d="M0 0 C0.66 0.33 1.32 0.66 2 1 C-0.23564003 3.57098604 -1.66002118 4.42107034 -5 5 C-7.4157906 5.06831987 -9.83334713 5.08487642 -12.25 5.0625 C-13.51328125 5.05347656 -14.7765625 5.04445312 -16.078125 5.03515625 C-17.04234375 5.02355469 -18.0065625 5.01195312 -19 5 C-19 4.67 -19 4.34 -19 4 C-18.13117188 3.96261719 -17.26234375 3.92523438 -16.3671875 3.88671875 C-10.1228303 3.53049703 -5.38579392 3.20236395 0 0 Z " fill="#7375E7" transform="translate(392,247)"/>
<path d="M0 0 C0.66 0.66 1.32 1.32 2 2 C1.875 5.5 1.875 5.5 1 9 C-1.82299691 11.23892859 -3.2791079 11 -7 11 C-7 10.34 -7 9.68 -7 9 C-3.535 8.505 -3.535 8.505 0 8 C0 5.36 0 2.72 0 0 Z " fill="#5659D9" transform="translate(160,175)"/>
<path d="M0 0 C-3.63719605 2.42479736 -5.85703482 2.38662577 -10.1875 2.625 C-11.45980469 2.69976562 -12.73210937 2.77453125 -14.04296875 2.8515625 C-15.01878906 2.90054688 -15.99460937 2.94953125 -17 3 C-11.23785514 0.01827875 -6.45821022 -1.57517322 0 0 Z " fill="#7678ED" transform="translate(112,158)"/>
<path d="M0 0 C0.99 0 1.98 0 3 0 C3.33 1.32 3.66 2.64 4 4 C5.65 4.33 7.3 4.66 9 5 C9 5.99 9 6.98 9 8 C2.18181818 6.03030303 2.18181818 6.03030303 0 3 C0 2.01 0 1.02 0 0 Z " fill="#7174E8" transform="translate(358,241)"/>
<path d="M0 0 C0.90492188 0.02320313 1.80984375 0.04640625 2.7421875 0.0703125 C4.10730469 0.09738281 4.10730469 0.09738281 5.5 0.125 C6.19867188 0.14820313 6.89734375 0.17140625 7.6171875 0.1953125 C7.6171875 0.8553125 7.6171875 1.5153125 7.6171875 2.1953125 C4.6471875 2.1953125 1.6771875 2.1953125 -1.3828125 2.1953125 C-1.3828125 2.8553125 -1.3828125 3.5153125 -1.3828125 4.1953125 C-2.7028125 4.1953125 -4.0228125 4.1953125 -5.3828125 4.1953125 C-3.98275878 1.39520507 -3.19761376 0.26209949 0 0 Z " fill="#717CEE" transform="translate(396.3828125,186.8046875)"/>
<path d="M0 0 C0.33 0.66 0.66 1.32 1 2 C0.67 2.99 0.34 3.98 0 5 C-3.14930893 6.04976964 -5.38814456 6.10131595 -8.6875 6.0625 C-9.68136719 6.05347656 -10.67523438 6.04445312 -11.69921875 6.03515625 C-12.83810547 6.01775391 -12.83810547 6.01775391 -14 6 C-14 5.67 -14 5.34 -14 5 C-12.98679687 4.83564453 -12.98679687 4.83564453 -11.953125 4.66796875 C-10.61507813 4.43013672 -10.61507813 4.43013672 -9.25 4.1875 C-8.36828125 4.03667969 -7.4865625 3.88585937 -6.578125 3.73046875 C-3.8089089 2.94585752 -2.1740599 1.85404641 0 0 Z " fill="#7273EA" transform="translate(391,236)"/>
<path d="M0 0 C1.75098126 2.62647188 3.38731308 5.28775382 5 8 C3.35 8.33 1.7 8.66 0 9 C-1.10844919 5.67465243 -0.84454356 3.37817425 0 0 Z " fill="#696AEE" transform="translate(426,215)"/>
<path d="M0 0 C1.98 0.66 3.96 1.32 6 2 C6 2.66 6 3.32 6 4 C4 6 4 6 2 7 C1.34 6.67 0.68 6.34 0 6 C0 4.02 0 2.04 0 0 Z " fill="#4837F9" transform="translate(363,218)"/>
<path d="M0 0 C1.45792884 -0.05399736 2.91642712 -0.09279177 4.375 -0.125 C5.18710937 -0.14820313 5.99921875 -0.17140625 6.8359375 -0.1953125 C9 0 9 0 11 2 C10.21625 2.45375 9.4325 2.9075 8.625 3.375 C5.96301969 4.88428742 5.96301969 4.88428742 4 7 C3.896875 6.21625 3.79375 5.4325 3.6875 4.625 C3.22404978 1.66954819 3.22404978 1.66954819 0 0 Z " fill="#635FF6" transform="translate(330,186)"/>
<path d="M0 0 C2.42130331 3.63195496 2.21022785 5.38349348 2.125 9.6875 C2.10695313 10.86699219 2.08890625 12.04648438 2.0703125 13.26171875 C2.03550781 14.61716797 2.03550781 14.61716797 2 16 C1.67 16 1.34 16 1 16 C0.63409254 14.27327966 0.28277805 12.54346345 -0.0625 10.8125 C-0.35833984 9.36810547 -0.35833984 9.36810547 -0.66015625 7.89453125 C-1.00423947 4.96389138 -0.74164697 2.83692932 0 0 Z " fill="#9695F0" transform="translate(425,195)"/>
<path d="M0 0 C0 0.66 0 1.32 0 2 C-0.66 2 -1.32 2 -2 2 C-2.33 3.32 -2.66 4.64 -3 6 C-4.65 6.33 -6.3 6.66 -8 7 C-6.76759083 3.3027725 -4.20634615 0 0 0 Z " fill="#7778EA" transform="translate(267,188)"/>
<path d="M0 0 C0.66 1.32 1.32 2.64 2 4 C0.35 5.32 -1.3 6.64 -3 8 C-3.66 7.67 -4.32 7.34 -5 7 C-3.70700306 4.11562221 -2.34058637 2.12780579 0 0 Z " fill="#6D67F1" transform="translate(81,169)"/>
<path d="M0 0 C4.10958767 1.45044271 7.43258745 3.51110752 11 6 C10.01 6.495 10.01 6.495 9 7 C8.01 6.67 7.02 6.34 6 6 C6 5.34 6 4.68 6 4 C4.35 3.67 2.7 3.34 1 3 C0.67 2.01 0.34 1.02 0 0 Z " fill="#777DEC" transform="translate(141,161)"/>
<path d="M0 0 C0 1.65 0 3.3 0 5 C-0.61875 4.814375 -1.2375 4.62875 -1.875 4.4375 C-4.04160178 3.76313824 -4.04160178 3.76313824 -6 5 C-6.66 4.34 -7.32 3.68 -8 3 C-4.93882432 0.37613513 -4.26826873 0 0 0 Z " fill="#4836F3" transform="translate(403,234)"/>
<path d="M0 0 C2.97 0 5.94 0 9 0 C9 0.99 9 1.98 9 3 C6.1875 3.1875 6.1875 3.1875 3 3 C2.01 2.01 1.02 1.02 0 0 Z " fill="#5C5DE6" transform="translate(369,229)"/>
<path d="M0 0 C4.29 0 8.58 0 13 0 C13 0.99 13 1.98 13 3 C8.71 2.34 4.42 1.68 0 1 C0 0.67 0 0.34 0 0 Z " fill="#4F4BE3" transform="translate(274,196)"/>
<path d="M0 0 C1.62463842 -0.05395478 3.24978541 -0.09277195 4.875 -0.125 C5.77992187 -0.14820313 6.68484375 -0.17140625 7.6171875 -0.1953125 C10 0 10 0 12 2 C9.69 2.33 7.38 2.66 5 3 C5 2.67 5 2.34 5 2 C3.35 1.67 1.7 1.34 0 1 C0 0.67 0 0.34 0 0 Z " fill="#4437EA" transform="translate(114,201)"/>
<path d="M0 0 C2.375 0.8125 2.375 0.8125 3.375 2.8125 C0.375 2.8125 -2.625 2.8125 -5.625 2.8125 C-3.74442913 0.33806465 -3.19312156 -0.22808011 0 0 Z " fill="#7981E7" transform="translate(366.625,235.1875)"/>
<path d="M0 0 C3.29148243 1.13499394 3.9959869 1.99283376 5.75 5.125 C6.1625 6.07375 6.575 7.0225 7 8 C6.01 7.67 5.02 7.34 4 7 C4 6.34 4 5.68 4 5 C3.01 4.67 2.02 4.34 1 4 C0.3125 1.9375 0.3125 1.9375 0 0 Z " fill="#7984EC" transform="translate(258,223)"/>
<path d="M0 0 C0.66 0 1.32 0 2 0 C2 0.66 2 1.32 2 2 C2.66 2 3.32 2 4 2 C4 3.98 4 5.96 4 8 C1.10067643 5.60490662 0.49831724 3.68754757 0 0 Z " fill="#6A72EB" transform="translate(359,216)"/>
<path d="M0 0 C2.475 0.495 2.475 0.495 5 1 C4.67 3.64 4.34 6.28 4 9 C2.47700477 6.06279492 1.19899698 3.0831351 0 0 Z " fill="#6F6CEC" transform="translate(496,200)"/>
<path d="M0 0 C0.66 1.32 1.32 2.64 2 4 C0.35 5.65 -1.3 7.3 -3 9 C-3 8.01 -3 7.02 -3 6 C-2.34 6 -1.68 6 -1 6 C-0.67 4.02 -0.34 2.04 0 0 Z " fill="#7475E9" transform="translate(453,220)"/>
<path d="M0 0 C2.4375 0.375 2.4375 0.375 5 1 C6.35439668 3.70879335 6.06501451 6.00933268 6 9 C4 6 4 6 3 3.9375 C2.04074983 1.83805638 2.04074983 1.83805638 0 0 Z " fill="#7981EA" transform="translate(388,199)"/>
<path d="M0 0 C1.32 0.99 2.64 1.98 4 3 C3.34 4.32 2.68 5.64 2 7 C0 5 0 5 -0.125 2.375 C-0.08375 1.59125 -0.0425 0.8075 0 0 Z " fill="#5E55EC" transform="translate(345,190)"/>
<path d="M0 0 C-0.66 0 -1.32 0 -2 0 C-2.33 0.99 -2.66 1.98 -3 3 C-4.65 3.33 -6.3 3.66 -8 4 C-7.1875 2.0625 -7.1875 2.0625 -6 0 C-3 -1 -3 -1 0 0 Z " fill="#5757E4" transform="translate(375,188)"/>
<path d="M0 0 C-0.33 0.99 -0.66 1.98 -1 3 C-2.65 3 -4.3 3 -6 3 C-6 2.01 -6 1.02 -6 0 C-3 -1 -3 -1 0 0 Z " fill="#6661EB" transform="translate(330,188)"/>
<path d="M0 0 C0.66 0.33 1.32 0.66 2 1 C2.33 1.99 2.66 2.98 3 4 C2.34 4.66 1.68 5.32 1 6 C0.01 5.01 -0.98 4.02 -2 3 C-1.34 2.01 -0.68 1.02 0 0 Z " fill="#4E37FD" transform="translate(125,184)"/>
</svg>
